<?xml version="1.0" standalone="no"?>
<!DOCTYPE svg PUBLIC "-//W3C//DTD SVG 20010904//EN"
 "http://www.w3.org/TR/2001/REC-SVG-20010904/DTD/svg10.dtd">
<svg version="1.0" xmlns="http://www.w3.org/2000/svg"
 width="512.000000pt" height="512.000000pt" viewBox="0 0 512.000000 512.000000"
 preserveAspectRatio="xMidYMid meet">

<g transform="translate(0.000000,512.000000) scale(0.100000,-0.100000)"
fill="#aaa" stroke="none">
<path d="M3557 4986 c-178 -11 -179 -11 -203 -39 -31 -36 -30 -71 2 -104 25
-25 28 -26 135 -21 61 3 106 2 103 -3 -3 -5 -85 -76 -182 -157 -591 -494
-1288 -939 -1995 -1274 -350 -166 -633 -283 -1075 -444 -75 -28 -93 -84 -43
-135 16 -16 37 -29 46 -29 27 0 506 183 730 278 900 384 1737 891 2429 1473
87 74 170 143 184 154 l25 19 -7 -49 c-21 -149 -20 -174 4 -200 36 -38 107
-31 125 12 16 39 73 458 65 479 -5 12 -19 29 -32 38 -26 18 -48 18 -311 2z"/>
<path d="M3335 3906 c-13 -13 -26 -39 -30 -57 -3 -19 -4 -261 -3 -538 l3 -504
90 -23 c144 -35 243 -79 359 -158 36 -25 68 -46 71 -46 3 0 5 286 5 635 0 681
0 678 -49 705 -12 6 -102 10 -221 10 -198 0 -201 0 -225 -24z"/>
<path d="M2369 3411 l-29 -29 0 -462 0 -461 78 68 c43 38 98 83 122 100 63 43
194 107 263 129 l57 18 0 304 0 304 -29 29 -29 29 -202 0 -202 0 -29 -29z"/>
<path d="M1407 2866 c-14 -13 -29 -35 -32 -48 -3 -12 -4 -330 -3 -706 l3 -684
33 -29 32 -29 186 0 c196 0 231 7 254 49 6 13 10 258 10 716 l0 697 -29 29
-29 29 -200 0 c-197 0 -199 0 -225 -24z"/>
<path d="M3035 2650 c-390 -51 -708 -344 -786 -725 -100 -485 191 -950 677
-1081 54 -15 103 -19 229 -18 145 0 168 3 250 28 102 31 217 88 291 145 l51
39 137 -137 137 -137 -14 -33 c-8 -18 -12 -43 -9 -56 4 -24 506 -521 549 -543
45 -24 63 -14 174 94 111 109 136 146 125 187 -7 28 -525 533 -561 547 -27 10
-51 5 -78 -19 -17 -14 -28 -5 -160 127 l-142 142 19 33 c47 80 78 148 101 222
151 481 -119 996 -602 1148 -131 42 -258 54 -388 37z m311 -285 c106 -33 171
-73 257 -154 233 -222 271 -571 92 -842 -122 -183 -324 -289 -549 -289 -187 0
-323 57 -457 190 -70 69 -94 101 -127 170 -54 111 -72 184 -72 295 1 337 234
604 575 659 65 10 204 -4 281 -29z"/>
<path d="M464 2360 c-54 -22 -54 -19 -54 -492 l0 -437 24 -28 24 -28 194 -3
c215 -3 232 1 260 58 16 32 18 74 18 440 0 366 -2 408 -18 440 -9 19 -28 40
-42 47 -29 15 -371 17 -406 3z"/>
</g>
</svg>
