<?xml version="1.0" standalone="no"?>
<!DOCTYPE svg PUBLIC "-//W3C//DTD SVG 20010904//EN"
 "http://www.w3.org/TR/2001/REC-SVG-20010904/DTD/svg10.dtd">
<svg version="1.0" xmlns="http://www.w3.org/2000/svg"
 width="512.000000pt" height="512.000000pt" viewBox="0 0 512.000000 512.000000"
 preserveAspectRatio="xMidYMid meet">

<g transform="translate(0.000000,512.000000) scale(0.100000,-0.100000)"
fill="#aaa" stroke="none">
<path d="M2370 5114 c-19 -2 -78 -9 -130 -15 -548 -62 -1083 -325 -1489 -730
-405 -406 -652 -907 -732 -1489 -18 -125 -18 -515 0 -640 80 -582 327 -1083
732 -1489 658 -658 1607 -906 2504 -654 929 260 1646 1043 1819 1987 156 845
-103 1682 -705 2285 -399 398 -879 639 -1449 726 -100 15 -472 28 -550 19z
m260 -164 c44 -22 107 -84 150 -145 103 -149 215 -452 284 -772 l24 -113 -528
0 -528 0 24 113 c54 251 126 471 207 632 58 116 89 164 145 222 78 80 149 100
222 63z m-396 -32 c-4 -7 -24 -38 -43 -68 -113 -177 -216 -474 -296 -852 l-17
-78 -389 0 -390 0 37 68 c178 323 424 596 685 760 85 54 234 124 329 156 88
29 94 30 84 14z m781 -30 c44 -16 126 -53 183 -83 304 -159 584 -450 786 -817
l37 -68 -390 0 -390 0 -16 78 c-79 376 -183 674 -296 852 -19 30 -39 61 -43
68 -10 16 21 9 129 -30z m-1515 -195 c-213 -194 -379 -410 -506 -658 l-59
-115 -183 0 -183 0 33 46 c160 224 412 464 653 620 76 49 300 173 315 174 2 0
-29 -30 -70 -67z m2324 -81 c253 -156 509 -394 685 -634 l42 -58 -183 0 -183
0 -52 103 c-59 115 -184 310 -262 407 -62 77 -159 178 -256 267 l-70 65 94
-47 c52 -26 135 -72 185 -103z m-2964 -853 c0 -6 -11 -43 -25 -81 -30 -84 -31
-112 -5 -138 25 -25 81 -26 103 -2 9 9 29 53 45 97 17 44 36 92 43 108 l12 27
410 0 410 0 -7 -52 c-4 -29 -10 -71 -13 -93 -7 -54 24 -95 71 -95 51 0 68 28
86 138 l16 97 554 0 554 0 16 -97 c18 -110 35 -138 86 -138 24 0 38 8 54 28
23 28 23 23 3 170 l-6 42 410 0 410 0 12 -27 c7 -16 26 -64 43 -108 16 -44 36
-88 45 -97 22 -24 78 -23 103 2 26 26 25 54 -5 138 -14 38 -25 75 -25 81 0 8
57 11 195 11 l194 0 70 -142 c38 -79 86 -188 106 -243 73 -198 131 -479 137
-670 l3 -80 -143 -5 c-127 -4 -145 -7 -158 -24 -16 -23 -18 -60 -4 -86 16 -29
66 -40 191 -40 89 0 119 -3 119 -12 0 -60 -26 -267 -46 -370 -45 -231 -119
-446 -226 -650 l-51 -98 -194 0 c-137 0 -193 3 -193 11 0 6 11 43 25 81 30 84
31 112 5 138 -25 25 -81 26 -103 2 -9 -9 -29 -53 -45 -97 -17 -44 -36 -92 -43
-107 l-12 -28 -410 0 -410 0 6 43 c20 146 20 141 -3 170 -16 19 -30 27 -54 27
-51 0 -68 -28 -86 -138 l-16 -97 -554 0 -554 0 -16 97 c-18 110 -35 138 -86
138 -47 0 -78 -41 -71 -95 3 -22 9 -64 13 -92 l7 -53 -410 0 -410 0 -12 28
c-7 15 -26 63 -43 107 -16 44 -36 88 -45 97 -22 24 -78 23 -103 -2 -26 -26
-25 -54 5 -138 14 -38 25 -75 25 -81 0 -8 -57 -11 -195 -11 l-194 0 -70 143
c-145 296 -218 565 -246 910 l-7 77 120 0 c126 0 176 11 192 40 14 26 12 63
-4 86 -13 17 -31 20 -158 24 l-143 5 3 80 c6 193 63 470 137 671 20 55 68 163
106 242 l70 142 194 0 c138 0 195 -3 195 -11z m129 -2665 c126 -248 294 -467
516 -671 l70 -65 -94 47 c-329 164 -649 435 -870 738 l-42 57 183 0 183 0 54
-106z m906 29 c82 -387 188 -687 308 -873 20 -30 34 -56 33 -57 -7 -7 -170 52
-255 93 -170 80 -289 164 -440 309 -151 146 -294 335 -405 538 l-37 67 390 0
389 0 17 -77z m1169 -35 c-69 -321 -181 -624 -284 -773 -69 -99 -157 -165
-220 -165 -43 0 -103 33 -152 83 -136 141 -266 454 -352 855 l-24 112 528 0
528 0 -24 -112z m920 45 c-210 -383 -494 -673 -819 -836 -80 -40 -273 -112
-281 -105 -1 2 13 28 33 58 120 187 241 532 313 893 l11 57 390 0 390 0 -37
-67z m525 10 c-220 -302 -538 -572 -869 -738 l-92 -46 126 122 c193 186 342
387 459 616 l52 103 183 0 183 0 -42 -57z"/>
<path d="M924 3349 c-102 -23 -200 -113 -228 -210 -66 -222 -66 -936 0 -1158
30 -101 127 -188 238 -211 35 -7 554 -10 1656 -8 l1605 3 55 26 c161 76 195
163 222 581 9 147 9 229 0 375 -27 419 -61 506 -222 582 l-55 26 -1615 2
c-962 0 -1632 -3 -1656 -8z m3240 -148 c38 -9 88 -49 108 -85 17 -31 37 -183
50 -374 9 -142 9 -222 0 -365 -13 -190 -33 -342 -50 -373 -19 -35 -67 -72
-107 -83 -50 -14 -3150 -15 -3209 -2 -38 9 -88 49 -108 85 -17 31 -37 183 -50
374 -9 142 -9 222 0 365 13 190 33 342 50 373 19 35 70 76 104 84 46 11 3164
12 3212 1z"/>
<path d="M1324 2917 c-25 -22 -30 -42 -85 -346 -42 -233 -56 -329 -49 -346 18
-48 83 -60 118 -22 16 17 28 62 52 192 17 94 32 174 33 179 2 5 27 -73 56
-172 53 -180 68 -209 114 -225 21 -8 81 15 93 34 4 8 32 95 60 194 29 99 53
177 53 174 1 -4 17 -87 36 -185 37 -193 47 -214 104 -214 34 0 71 37 71 72 0
13 -27 164 -60 334 -54 283 -61 311 -85 332 -14 12 -39 22 -55 22 -60 0 -76
-29 -139 -250 -32 -113 -61 -198 -64 -190 -4 8 -31 101 -61 205 -44 151 -61
195 -81 213 -33 28 -77 28 -111 -1z"/>
<path d="M2216 2919 l-26 -20 0 -340 c0 -326 1 -340 20 -359 18 -18 33 -20
180 -20 147 0 162 2 180 20 27 27 26 81 -1 106 -17 16 -40 20 -125 22 l-104 4
0 74 0 74 89 0 c79 0 93 3 115 23 36 32 39 74 6 107 -17 17 -33 20 -115 20
l-95 0 0 80 0 80 105 0 c92 0 108 3 125 20 30 30 27 83 -6 109 -24 19 -40 21
-174 21 -134 0 -150 -2 -174 -21z"/>
<path d="M2806 2919 c-36 -28 -36 -80 0 -108 20 -16 41 -21 85 -21 l59 0 0
-284 c0 -261 1 -286 18 -307 27 -33 78 -30 109 5 23 27 23 28 23 307 l0 279
60 0 c51 0 65 4 85 25 14 13 25 36 25 50 0 14 -11 37 -25 50 -24 25 -25 25
-218 25 -181 0 -196 -1 -221 -21z"/>
<path d="M3596 2918 c-19 -17 -58 -110 -146 -340 -66 -175 -120 -322 -120
-327 0 -25 25 -61 50 -71 46 -19 80 6 111 82 l25 63 133 0 132 0 28 -65 c32
-77 63 -100 108 -78 15 7 34 25 42 39 13 24 7 44 -109 353 -130 345 -141 366
-201 366 -15 0 -39 -10 -53 -22z m92 -337 c17 -48 32 -91 32 -95 0 -3 -31 -6
-70 -6 -38 0 -70 3 -70 8 0 13 65 182 70 182 3 0 20 -40 38 -89z"/>
</g>
</svg>
