<?xml version="1.0" standalone="no"?>
<!DOCTYPE svg PUBLIC "-//W3C//DTD SVG 20010904//EN"
 "http://www.w3.org/TR/2001/REC-SVG-20010904/DTD/svg10.dtd">
<svg version="1.0" xmlns="http://www.w3.org/2000/svg" viewBox="0 0 512.000000 512.000000"
 preserveAspectRatio="xMidYMid meet">

<g transform="translate(0.000000,512.000000) scale(0.100000,-0.100000)"
fill="#ddd" stroke="none">
<path d="M2335 4789 c-527 -54 -1015 -292 -1386 -676 -361 -374 -574 -841
-620 -1361 -19 -220 -9 -271 65 -326 39 -29 133 -29 172 0 60 44 67 64 75 201
19 314 78 540 204 793 192 383 489 675 880 865 939 459 2078 74 2547 -860 127
-252 188 -486 206 -793 9 -142 16 -162 76 -206 39 -29 133 -29 172 0 65 48 69
62 67 217 -3 305 -79 607 -228 912 -318 647 -949 1109 -1665 1220 -127 19
-441 27 -565 14z"/>
<path d="M2375 3989 c-319 -44 -601 -184 -830 -414 -265 -264 -416 -609 -419
-957 -1 -127 6 -146 68 -192 39 -29 133 -29 172 0 56 42 67 66 75 176 9 129
23 208 54 303 91 278 291 514 546 645 330 170 695 173 1022 9 211 -106 381
-273 487 -480 82 -160 113 -273 129 -473 8 -114 19 -138 75 -180 39 -29 133
-29 172 0 63 47 69 65 67 197 -4 347 -154 689 -418 952 -209 210 -459 344
-746 400 -100 20 -356 28 -454 14z"/>
<path d="M2433 3190 c-242 -51 -448 -256 -498 -495 -65 -309 105 -619 399
-730 l61 -23 3 -230 2 -231 -189 -3 c-173 -3 -192 -5 -217 -24 -53 -39 -69
-71 -69 -134 0 -63 16 -95 69 -134 27 -21 38 -21 566 -21 528 0 539 0 566 21
53 39 69 71 69 134 0 63 -16 95 -69 134 -25 19 -44 21 -217 24 l-189 3 2 231
3 230 61 23 c205 77 354 252 398 468 31 148 14 276 -55 416 -73 149 -222 275
-386 327 -57 18 -250 27 -310 14z"/>
</g>
</svg>
