<?xml version="1.0" standalone="no"?>
<!DOCTYPE svg PUBLIC "-//W3C//DTD SVG 20010904//EN"
 "http://www.w3.org/TR/2001/REC-SVG-20010904/DTD/svg10.dtd">
<svg version="1.0" xmlns="http://www.w3.org/2000/svg"
 width="640.000000pt" height="640.000000pt" viewBox="0 0 640.000000 640.000000"
 preserveAspectRatio="xMidYMid meet">

<g transform="translate(0.000000,640.000000) scale(0.100000,-0.100000)"
fill="#aaa" stroke="none">
<path d="M2767 5526 c-31 -13 -73 -36 -91 -50 -19 -14 -128 -131 -243 -260
l-208 -235 -245 0 c-267 -1 -321 -9 -412 -58 -57 -31 -138 -113 -167 -171 -52
-101 -51 -85 -51 -1112 0 -1055 -2 -1020 63 -1129 41 -69 106 -126 185 -164
l64 -30 -141 -142 c-78 -78 -142 -150 -142 -161 -3 -53 20 -84 65 -84 28 0
203 172 1718 1688 1617 1616 1688 1689 1688 1723 0 43 -25 69 -66 69 -25 0
-62 -33 -244 -215 l-215 -215 -60 1 -60 0 -140 191 c-181 247 -229 299 -313
340 l-67 33 -430 2 -430 3 -58 -24z m918 -135 c22 -11 52 -30 66 -43 22 -19
247 -313 273 -355 6 -10 -158 -13 -804 -13 l-811 0 131 148 c207 232 218 242
263 262 39 18 68 20 442 20 372 0 403 -2 440 -19z m248 -803 l-252 -252 -98
46 c-140 65 -221 83 -373 82 -151 -1 -243 -23 -375 -88 -269 -133 -446 -399
-470 -708 -12 -148 19 -298 93 -446 l36 -73 -356 -355 -355 -356 -56 12 c-103
21 -199 110 -227 208 -6 24 -10 370 -10 983 0 1089 -6 1015 89 1110 42 42 71
62 107 73 42 13 213 15 1274 15 l1225 1 -252 -252z m-538 -283 c64 -17 175
-64 175 -74 0 -8 -963 -971 -971 -971 -10 0 -57 111 -73 173 -65 250 6 503
193 687 113 110 232 173 382 199 71 13 219 6 294 -14z"/>
<path d="M4635 4955 c-14 -13 -25 -33 -25 -45 0 -31 44 -70 78 -70 68 0 134
-30 193 -89 96 -96 90 -19 87 -1132 l-3 -964 -27 -51 c-31 -59 -84 -108 -147
-138 -46 -21 -48 -21 -1326 -23 l-1280 -3 -17 -21 c-27 -32 -23 -74 8 -98 27
-21 27 -21 1274 -21 788 0 1267 4 1301 10 124 23 239 103 302 211 58 99 57 76
57 1124 0 1024 1 1006 -49 1104 -30 57 -104 136 -159 168 -56 33 -153 63 -203
63 -29 0 -47 -7 -64 -25z"/>
<path d="M4415 4480 c-117 -77 -65 -250 75 -250 26 0 58 8 76 19 32 20 64 74
64 110 0 36 -26 86 -59 114 -41 34 -110 37 -156 7z"/>
<path d="M3850 4080 c-28 -28 -25 -50 21 -141 55 -111 79 -209 79 -329 0 -332
-216 -611 -540 -697 -87 -23 -253 -23 -340 0 -62 17 -195 76 -252 113 -35 23
-76 11 -98 -29 -13 -24 -13 -30 0 -54 21 -38 150 -114 246 -146 304 -100 626
-28 857 192 133 126 217 277 252 450 24 115 16 307 -15 406 -27 87 -82 203
-110 233 -26 28 -73 29 -100 2z"/>
<path d="M1130 1090 l0 -290 40 0 40 0 0 203 1 202 132 -202 132 -202 43 -1
42 0 0 290 0 290 -45 0 -45 0 0 -202 0 -203 -133 202 -132 202 -37 1 -38 0 0
-290z"/>
<path d="M1885 1366 c-40 -17 -84 -63 -101 -103 -17 -40 -19 -298 -3 -340 14
-38 67 -92 106 -109 77 -33 193 -7 246 55 38 45 42 68 42 221 0 74 -3 147 -7
162 -12 40 -57 89 -103 109 -47 22 -136 24 -180 5z m154 -82 c39 -28 51 -73
51 -194 0 -159 -27 -210 -113 -210 -96 0 -122 44 -122 210 0 128 12 172 54
195 35 19 101 19 130 -1z"/>
<path d="M2660 1090 l0 -290 45 0 45 0 0 290 0 290 -45 0 -45 0 0 -290z"/>
<path d="M2980 1090 l0 -290 45 0 45 0 1 188 1 187 65 -132 c65 -132 65 -133
99 -133 34 0 35 1 98 133 l64 132 1 -187 1 -188 45 0 45 0 0 291 0 290 -45 -3
-46 -3 -77 -168 c-43 -93 -82 -169 -86 -168 -4 0 -44 77 -88 171 l-81 170 -43
0 -44 0 0 -290z"/>
<path d="M3855 1368 c-2 -7 -50 -136 -105 -287 -55 -151 -100 -276 -100 -278
0 -2 21 -3 47 -1 l46 3 20 58 19 57 113 0 113 0 19 -57 20 -58 46 -3 c26 -2
47 -1 47 0 0 2 -47 132 -104 289 l-104 284 -36 3 c-23 2 -38 -2 -41 -10z m85
-247 c22 -61 40 -116 40 -121 0 -6 -38 -10 -86 -10 -65 0 -85 3 -82 13 3 6 22
62 43 124 22 62 40 111 42 109 2 -1 21 -53 43 -115z"/>
<path d="M4401 1369 c-44 -18 -82 -51 -103 -92 -20 -38 -23 -57 -23 -187 0
-131 3 -149 23 -187 80 -153 336 -130 381 34 6 21 11 68 11 106 l0 67 -105 0
-105 0 0 -35 0 -35 60 0 60 0 0 -46 c0 -39 -5 -51 -34 -80 -28 -28 -42 -34
-75 -34 -100 0 -126 43 -126 210 0 166 26 210 124 210 46 0 95 -35 105 -75 6
-22 12 -25 51 -25 51 0 53 6 26 65 -22 48 -54 79 -103 100 -41 17 -130 19
-167 4z"/>
<path d="M4900 1090 l0 -290 180 0 180 0 0 40 0 40 -135 0 -135 0 0 85 0 84
118 3 117 3 3 38 3 37 -120 0 -121 0 0 85 0 85 135 0 135 0 0 40 0 40 -180 0
-180 0 0 -290z"/>
</g>
</svg>
