<?xml version="1.0" encoding="utf-8"?>
<!-- Generator: Adobe Illustrator 16.0.0, SVG Export Plug-In . SVG Version: 6.00 Build 0)  -->
<!DOCTYPE svg PUBLIC "-//W3C//DTD SVG 1.1//EN" "http://www.w3.org/Graphics/SVG/1.1/DTD/svg11.dtd">
<svg version="1.1" id="Layer_1" xmlns="http://www.w3.org/2000/svg" xmlns:xlink="http://www.w3.org/1999/xlink" x="0px" y="0px"
	 width="1400px" height="980px" viewBox="0 0 1400 980" enable-background="new 0 0 1400 980" xml:space="preserve">
<g>
	<g>
		<rect fill="#FFFFFF" width="1399.992" height="980"/>
	</g>
	<g>
		<path fill="#E6E7E8" d="M429.772,797.478c-1.674-2.577-3.67-4.97-5.928-7.113c-7.624-7.246-17.619-11.086-28.141-10.813
			c-10.519,0.27-20.304,4.619-27.548,12.25c-12.607,13.283-14.452,33.259-4.487,48.577c1.681,2.581,3.679,4.977,5.937,7.117
			c7.631,7.25,17.625,11.091,28.141,10.815c10.526-0.275,20.308-4.63,27.549-12.263C437.9,832.773,439.741,812.8,429.772,797.478z
			 M369.713,836.446c-8.137-12.506-6.627-28.823,3.669-39.679c5.922-6.235,13.914-9.79,22.507-10.011
			c8.59-0.223,16.755,2.915,22.991,8.837c1.85,1.761,3.481,3.717,4.848,5.815c8.141,12.516,6.637,28.831-3.663,39.678
			c-5.921,6.236-13.913,9.795-22.506,10.016c-8.591,0.225-16.759-2.916-22.993-8.84C372.722,840.52,371.089,838.563,369.713,836.446
			z"/>
		<path fill="#E6E7E8" d="M451.251,870.691c24.059-25.337,27.57-63.47,8.534-92.73c-3.203-4.921-7.002-9.483-11.293-13.56
			c-30.07-28.541-77.749-27.304-106.289,2.762c-18.641,19.629-25.283,47.849-17.388,73.752l-25.139,80.24l78.816-29.271
			C404.774,898.423,432.613,890.325,451.251,870.691z M332.031,842.001l0.346-1.096l-0.35-1.093
			c-7.627-23.711-1.725-49.646,15.408-67.686c12.474-13.146,29.354-20.645,47.525-21.117c18.172-0.473,35.42,6.141,48.565,18.62
			c3.883,3.684,7.32,7.81,10.216,12.263c17.208,26.452,14.034,60.926-7.721,83.835c-17.125,18.041-42.718,25.281-66.801,18.897
			l-1.105-0.292l-67.158,24.939L332.031,842.001z"/>
	</g>
	<path fill="#E6E7E8" d="M324.582,508.551l-0.223-0.384c-17.845-29.593-48.991-48.875-83.317-51.58
		c-3.24-0.256-5.952-0.375-8.534-0.375c-2.59,0-5.306,0.119-8.546,0.375c-55.294,4.352-98.608,51.253-98.608,106.775
		c0,55.501,43.272,102.401,98.532,106.773l0.322,0.02c3.196,0.244,5.834,0.357,8.3,0.357c2.485,0,5.12-0.114,8.546-0.371
		c55.292-4.375,98.604-51.277,98.604-106.779C339.659,544.03,334.443,525.072,324.582,508.551z M239.848,665.741l-0.702,0.042
		c-1.176,0.073-2.363,0.146-3.557,0.181l-0.835,0.028v-46.717h36.931l-0.473,1.128c-0.259,0.63-0.536,1.247-0.83,1.86l-0.388,0.867
		c-0.348,0.784-0.695,1.566-1.065,2.336c-0.235,0.486-0.482,0.968-0.731,1.45l-1.468,2.86c-0.337,0.661-0.676,1.324-1.036,1.987
		c-0.405,0.734-0.825,1.452-1.253,2.176l-0.966,1.67c-0.441,0.77-0.879,1.531-1.348,2.299c-0.397,0.655-0.82,1.302-1.242,1.945
		l-1.15,1.771c-0.485,0.752-0.97,1.503-1.485,2.248c-0.487,0.712-0.998,1.416-1.507,2.119l-1.337,1.86
		c-0.436,0.611-0.872,1.223-1.336,1.832c-0.357,0.472-0.728,0.928-1.098,1.387l-1.55,1.938c-0.603,0.768-1.216,1.535-1.85,2.285
		c-0.411,0.491-0.837,0.972-1.266,1.456l-1.783,2.009c-0.572,0.653-1.152,1.312-1.749,1.959c-0.593,0.636-1.203,1.249-1.819,1.863
		l-0.469,0.473c-0.802,0.836-1.593,1.655-2.427,2.476L239.848,665.741z M248.564,663.237l0.503-0.6
		c3.208-3.509,5.894-6.714,8.454-10.083c2.488-3.263,4.86-6.679,7.268-10.466c0.118-0.198,0.243-0.396,0.392-0.611l0.256-0.388
		c2.06-3.314,4.066-6.879,5.962-10.59l0.816-1.586c1.5-3.018,2.9-6.092,4.16-9.137l0.208-0.502h41.765l-0.861,1.271
		c-15.874,23.461-40.739,39.526-68.223,44.078l-2.333,0.386L248.564,663.237z M282.942,567.347c-0.017,1.094-0.043,2.193-0.096,3.28
		c-0.026,0.527-0.063,1.051-0.104,1.573l-0.134,1.85c-0.085,1.264-0.172,2.521-0.294,3.769c-0.063,0.68-0.152,1.368-0.252,2.069
		l-0.291,2.37c-0.104,0.897-0.208,1.795-0.341,2.693c-0.072,0.469-0.156,0.93-0.24,1.393l-0.505,2.903
		c-0.154,0.92-0.313,1.837-0.495,2.733c-0.151,0.749-0.323,1.485-0.494,2.221l-0.531,2.307c-0.176,0.808-0.355,1.613-0.558,2.402
		c-0.175,0.684-0.37,1.365-0.571,2.069l-0.548,1.927c-0.258,0.945-0.516,1.885-0.808,2.838c-0.236,0.767-0.491,1.52-0.748,2.277
		l-0.607,1.797c-0.287,0.879-0.576,1.757-0.893,2.627c-0.129,0.367-0.278,0.735-0.437,1.122l-0.476,1.226h-38.765v-49.19h48.226
		L282.942,567.347z M278.748,613.703c0.921-2.545,1.833-5.358,2.789-8.601c0.127-0.43,0.531-1.914,0.532-1.918
		c1.13-4.063,2.028-7.853,2.747-11.599l0.305-1.72c0.775-4.332,1.332-8.353,1.697-12.271c0.034-0.294,0.057-0.584,0.072-0.864
		l0.016-0.266c0.283-3.257,0.462-6.645,0.534-10.069l0.017-0.794h47.596l-0.025,0.836c-0.507,16.823-5.221,33.403-13.632,47.947
		l-0.236,0.407h-42.806L278.748,613.703z M276.522,507.438l-0.209-0.491c-0.076-0.182-0.163-0.358-0.277-0.588
		c-0.097-0.201-0.192-0.398-0.274-0.601c-1.562-3.649-3.078-6.899-4.629-9.925l-0.447-0.897c-1.599-3.07-3.466-6.302-5.704-9.874
		c-0.355-0.576-1.25-1.972-1.253-1.978c-2.209-3.39-4.317-6.39-6.457-9.19l-1.167-1.462c-2.256-2.878-4.628-5.693-7.072-8.391
		c-0.1-0.104-0.187-0.212-0.299-0.357l-1.784-1.97l2.314,0.382c27.767,4.57,52.733,20.636,68.496,44.076l0.853,1.266H276.522z
		 M257.232,481.461l0.455,0.646c0.159,0.223,0.316,0.44,0.458,0.658c2.156,3.154,4.227,6.493,6.329,10.206l0.303,0.538
		c0.245,0.43,0.486,0.852,0.716,1.288c1.875,3.434,3.636,7.009,5.233,10.627l0.892,2.013h-36.865v-46.703l0.834,0.023
		c1.266,0.036,2.567,0.107,3.983,0.216l0.292,0.021l0.781,0.785c3.24,3.23,6.076,6.289,8.685,9.369l0.26,0.291
		C252.041,474.355,254.542,477.634,257.232,481.461z M277.498,524.076c0.658,2.294,1.203,4.731,1.641,6.69l0.203,0.909
		c0.151,0.665,0.311,1.326,0.474,1.992l0.038,0.155c0.252,1.027,0.512,2.09,0.706,3.133c0.5,2.658,0.841,5.448,1.116,7.693
		l0.111,0.889c0.05,0.402,0.11,0.804,0.171,1.206l0.077,0.512c0.148,0.946,0.288,1.873,0.374,2.809
		c0.329,3.511,0.421,7.117,0.482,10.225l0.018,0.828h-48.154v-49.193h38.625l0.2,0.516c0.643,1.689,1.218,3.433,1.774,5.118
		l0.921,2.749C276.695,521.512,277.135,522.802,277.498,524.076z M284.346,533.409c-0.146-0.607-0.56-2.455-0.56-2.455
		c-0.516-2.31-1.101-4.926-1.798-7.385c-0.367-1.306-0.782-2.582-1.184-3.816l-0.476-1.468c-0.223-0.683-0.428-1.372-0.643-2.09
		c-0.313-1.045-0.636-2.126-1.021-3.183l-0.398-1.089h43.087l0.235,0.406c8.321,14.49,12.982,31.07,13.479,47.949l0.025,0.838
		h-47.696l-0.017-0.798c-0.053-2.876-0.158-6.658-0.502-10.41c-0.069-0.774-0.178-1.534-0.3-2.378
		c-0.095-0.647-0.188-1.297-0.277-2.084c-0.359-2.91-0.729-5.92-1.259-8.837C284.845,535.532,284.591,534.455,284.346,533.409z
		 M188.443,619.275l0.206,0.505c1.233,3.001,2.627,6.07,4.152,9.14l0.811,1.562c1.904,3.748,3.913,7.318,5.979,10.625l0.263,0.404
		c0.122,0.181,0.247,0.362,0.362,0.567c2.346,3.688,4.826,7.262,7.375,10.625c2.493,3.251,5.296,6.586,8.353,9.935
		c0.094,0.098,0.173,0.196,0.255,0.298l1.882,2.075l-2.332-0.386c-27.47-4.547-52.336-20.613-68.223-44.078l-0.86-1.271H188.443z
		 M215.433,655.291c-0.696-0.834-1.373-1.688-2.047-2.54l-1.026-1.285c-0.483-0.592-0.965-1.19-1.418-1.789
		c-0.72-0.949-1.408-1.917-2.129-2.931l-0.564-0.778c-0.505-0.694-1.013-1.392-1.508-2.103c-0.4-0.591-0.785-1.188-1.17-1.784
		l-1.464-2.249c-0.414-0.639-0.83-1.279-1.222-1.932c-0.468-0.755-0.91-1.52-1.352-2.296l-1.005-1.725
		c-0.41-0.701-0.822-1.403-1.211-2.122c-0.422-0.766-0.814-1.545-1.211-2.333l-0.875-1.702c-0.396-0.754-0.786-1.5-1.147-2.259
		c-0.379-0.777-0.736-1.573-1.091-2.365l-0.821-1.823c-0.131-0.29-0.262-0.581-0.385-0.871l-0.472-1.129h36.941v46.717l-0.841-0.029
		c-1.193-0.033-2.384-0.106-3.57-0.18l-0.692-0.042l-0.218-0.215c-0.815-0.814-1.618-1.632-2.414-2.468l-0.76-0.774
		c-0.511-0.515-1.027-1.033-1.528-1.57c-0.494-0.546-3.492-3.933-3.496-3.938C216.298,656.285,215.861,655.795,215.433,655.291z
		 M177.552,565.603l0.017,0.793c0.071,3.48,0.25,6.861,0.532,10.061c0.026,0.252,0.082,1.163,0.084,1.198
		c0.368,3.842,0.93,7.829,1.715,12.175l0.163,0.985c0.043,0.259,0.088,0.522,0.146,0.781c0.698,3.714,1.59,7.505,2.728,11.59
		c0,0,0.384,1.376,0.543,1.926c0.966,3.29,1.853,6.02,2.79,8.589l0.398,1.093h-42.802l-0.236-0.407
		c-8.412-14.505-13.133-31.085-13.652-47.947l-0.025-0.836H177.552z M188.333,605.748c-0.241-0.767-0.454-1.534-0.666-2.301
		l-0.661-2.375c-0.208-0.72-0.41-1.432-0.592-2.155c-0.213-0.811-0.397-1.632-0.58-2.46l-0.574-2.54
		c-0.153-0.643-0.302-1.285-0.435-1.938c-0.204-1.03-0.38-2.075-0.557-3.121l-0.311-1.764c-0.133-0.71-0.262-1.427-0.366-2.141
		c-0.14-0.915-0.249-1.84-0.357-2.77l-0.294-2.354c-0.089-0.667-0.173-1.335-0.237-1.999c-0.13-1.316-0.217-2.633-0.313-4.056
		l-0.108-1.489c-0.046-0.55-0.092-1.101-0.121-1.662c-0.041-0.838-0.061-1.686-0.07-2.552l-0.068-2.47h48.233v49.19h-38.74
		l-0.353-0.87c-0.199-0.489-0.398-0.977-0.586-1.486c-0.208-0.565-0.397-1.139-0.585-1.71l-0.957-2.851
		C188.794,607.166,188.554,606.457,188.333,605.748z M186.341,513.016c-0.364,1.009-0.674,2.034-0.973,3.025l-0.142,0.472
		c-0.178,0.595-0.354,1.187-0.544,1.771l-0.531,1.656c-0.386,1.178-0.785,2.395-1.136,3.627c-0.732,2.63-1.349,5.391-1.893,7.826
		l-0.405,1.794c-0.282,1.209-0.531,2.302-0.736,3.422c-0.554,2.995-0.941,6.09-1.291,9.004c-0.071,0.604-0.155,1.201-0.247,1.803
		c-0.13,0.869-0.244,1.655-0.318,2.481c-0.321,3.59-0.432,7.284-0.496,10.423l-0.018,0.797h-47.696l0.026-0.837
		c0.514-16.833,5.228-33.416,13.633-47.954l0.232-0.402h42.934L186.341,513.016z M182.121,560.28
		c0.078-3.162,0.166-6.747,0.479-10.215c0.086-0.87,0.216-1.719,0.362-2.676c0.095-0.614,0.189-1.227,0.267-1.855l0.143-1.195
		c0.303-2.424,0.616-4.93,1.084-7.381c0.22-1.185,0.504-2.351,0.826-3.647l0.751-3.221c0.439-1.973,0.892-4.014,1.469-6.005
		c0.356-1.235,0.768-2.436,1.233-3.773l0.919-2.731c0.571-1.751,1.135-3.461,1.771-5.134l0.202-0.522h38.63v49.193H182.1
		L182.121,560.28z M216.436,463.502l-0.419,0.508c-2.393,2.617-4.729,5.383-7.139,8.448c0,0-0.897,1.122-1.123,1.415
		c-2.307,3.032-4.493,6.143-6.497,9.243c-0.404,0.623-0.805,1.246-1.195,1.887c-2.186,3.474-4.069,6.735-5.75,9.961l-0.158,0.302
		c-0.063,0.141-0.128,0.279-0.217,0.429c-1.625,3.175-3.199,6.558-4.676,10.056c-0.09,0.213-0.192,0.421-0.33,0.704l-0.079,0.163
		c-0.052,0.105-0.103,0.21-0.149,0.32l-0.209,0.5h-41.921l0.859-1.269c15.858-23.457,40.761-39.521,68.325-44.073l2.377-0.394
		L216.436,463.502z M194.272,505.434c1.598-3.618,3.371-7.21,5.266-10.67l0.99-1.771c2.124-3.747,4.199-7.104,6.333-10.243
		l0.919-1.282c2.569-3.677,5.107-6.998,7.726-10.12l0.189-0.207c2.634-3.115,5.47-6.176,8.679-9.365
		c0.001-0.001,0.446-0.455,0.578-0.581l0.21-0.199l0.29-0.021c1.376-0.106,2.711-0.18,3.968-0.216l0.836-0.023v46.703h-36.839
		C193.795,506.549,194.223,505.543,194.272,505.434z"/>
	<g>
		<path fill="#E6E7E8" d="M303.536,353.53c-6.149,0-12.336-0.588-18.385-1.75l-2.993-0.574l0.499-3.006
			c1.925-11.595-3.715-23.174-14.033-28.813c-4.073-2.222-8.658-3.396-13.254-3.396c-6.876,0-13.473,2.53-18.573,7.127l-2.256,2.033
			l-2.097-2.197c-6.169-6.465-11.411-13.758-15.58-21.678l-1.44-2.734l2.719-1.47c4.691-2.536,8.54-6.368,11.13-11.083
			c3.544-6.495,4.352-13.989,2.268-21.093c-2.083-7.106-6.813-12.975-13.316-16.522c-2.905-1.562-6.004-2.591-9.196-3.051
			l-3.072-0.443l0.423-3.075c1.227-8.929,3.74-17.724,7.468-26.141l1.229-2.772l2.809,1.145c3.333,1.359,6.847,2.047,10.442,2.047
			c10.171,0,19.499-5.524,24.342-14.419c4.572-8.354,4.547-18.319-0.061-26.667l-1.468-2.659l2.617-1.542
			c7.618-4.491,15.885-7.943,24.573-10.259l2.927-0.78l0.872,2.901c2.123,7.077,6.837,12.913,13.273,16.435
			c4.074,2.215,8.665,3.389,13.271,3.389c10.156,0,19.494-5.535,24.369-14.444c0.46-0.861,0.898-1.78,1.324-2.78l1.173-2.756
			l2.803,1.055c4.23,1.593,8.273,3.439,12.36,5.648c4.06,2.238,7.905,4.714,11.457,7.369l2.415,1.805l-1.718,2.479
			c-0.562,0.811-1.15,1.686-1.649,2.596c-3.552,6.484-4.359,13.973-2.273,21.085s6.811,12.989,13.303,16.545
			c6.367,3.462,14.029,4.292,21,2.296l2.91-0.832l0.925,2.881c2.72,8.473,4.285,17.283,4.649,26.188l0.124,3.035l-3.031,0.209
			c-9.545,0.659-17.963,6.027-22.516,14.357c-6.763,12.433-3.155,27.878,8.394,35.924l2.497,1.738l-1.672,2.542
			c-5.02,7.633-11.033,14.485-17.873,20.368l-2.328,2.001l-2.042-2.291c-2.134-2.396-4.626-4.39-7.405-5.929
			c-4.048-2.209-8.629-3.381-13.231-3.381c-10.169,0-19.511,5.529-24.38,14.432c-2.533,4.666-3.674,9.922-3.294,15.195l0.22,3.064
			l-3.062,0.271C309.277,353.403,306.39,353.53,303.536,353.53z M289.19,346.146c6.424,1.021,12.945,1.357,19.457,0.992
			c0.111-5.4,1.514-10.707,4.121-15.508c5.971-10.916,17.414-17.691,29.868-17.691c5.646,0,11.262,1.437,16.242,4.154
			c2.501,1.385,4.803,3.063,6.879,5.01c4.795-4.404,9.12-9.337,12.904-14.717c-12.199-10.258-15.642-27.84-7.852-42.162
			c5.089-9.311,14.101-15.598,24.501-17.25c-0.461-6.393-1.585-12.719-3.351-18.873c-7.678,1.47-15.819,0.219-22.719-3.532
			c-7.964-4.362-13.751-11.56-16.306-20.272c-2.557-8.717-1.566-17.896,2.789-25.846c0.107-0.196,0.216-0.389,0.326-0.578
			c-2.645-1.844-5.441-3.582-8.345-5.184c-2.943-1.59-5.875-2.984-8.881-4.225c-0.094,0.184-0.19,0.365-0.287,0.547
			c-5.987,10.941-17.426,17.721-29.867,17.721c-5.646,0-11.27-1.436-16.263-4.152c-6.992-3.824-12.321-9.867-15.253-17.215
			c-6.183,1.854-12.118,4.328-17.705,7.383c4.236,9.614,3.805,20.586-1.298,29.912c-5.936,10.899-17.365,17.674-29.827,17.674
			c-3.376,0-6.693-0.494-9.896-1.475c-2.495,6.135-4.308,12.463-5.409,18.877c2.821,0.684,5.562,1.736,8.18,3.144
			c7.987,4.356,13.783,11.548,16.337,20.259c2.552,8.705,1.564,17.886-2.784,25.852c-2.663,4.85-6.412,8.934-10.947,11.959
			c3.17,5.574,6.921,10.792,11.192,15.564c5.857-4.387,12.981-6.771,20.37-6.771c5.64,0,11.259,1.438,16.25,4.16
			C283.355,320.315,290.153,332.997,289.19,346.146z M303.582,309.093c-8.938,0-17.834-2.282-25.727-6.602
			c-12.593-6.883-21.754-18.257-25.796-32.025c-4.042-13.773-2.476-28.295,4.411-40.888c9.436-17.251,27.518-27.967,47.188-27.967
			c8.942,0,17.842,2.282,25.738,6.602c25.967,14.21,35.556,46.905,21.377,72.881C341.336,298.365,323.254,309.093,303.582,309.093z
			 M303.658,207.86c-17.385,0-33.365,9.471-41.704,24.717c-6.085,11.127-7.469,23.958-3.897,36.129
			c3.571,12.167,11.667,22.219,22.797,28.303c6.977,3.816,14.835,5.834,22.728,5.834c17.386,0,33.366-9.481,41.706-24.744
			c12.529-22.954,4.055-51.846-18.892-64.403C319.417,209.878,311.554,207.86,303.658,207.86z"/>
	</g>
	<g>
		<path fill="#E6E7E8" d="M161.034,421.455c-4.654,0-9.35-0.485-13.956-1.439l-2.986-0.618l0.546-3.002
			c1.38-7.585-2.194-15.236-8.893-19.038c-2.731-1.552-5.822-2.37-8.94-2.37c-4.409,0-8.666,1.594-11.988,4.487l-2.291,1.997
			l-2.06-2.235c-4.242-4.603-7.826-9.771-10.653-15.36l-1.395-2.758l2.742-1.426c3.109-1.616,5.673-4.084,7.415-7.14
			c2.397-4.222,3.005-9.132,1.707-13.821c-1.296-4.682-4.335-8.574-8.56-10.962c-1.842-1.048-3.86-1.761-6.009-2.122l-3.041-0.512
			l0.47-3.046c0.968-6.282,2.832-12.411,5.538-18.216l1.279-2.746l2.784,1.192c2.262,0.969,4.655,1.46,7.113,1.46
			c6.536,0,12.599-3.527,15.823-9.207c3.071-5.422,3.159-11.955,0.233-17.473l-1.417-2.673l2.625-1.503
			c5.332-3.052,11.163-5.381,17.329-6.925l2.946-0.737l0.821,2.925c1.304,4.646,4.336,8.521,8.538,10.907
			c2.732,1.553,5.828,2.371,8.95,2.371c6.539,0,12.597-3.523,15.811-9.195c0.333-0.567,0.604-1.121,0.879-1.782l1.185-2.856
			l2.868,1.154c2.862,1.152,5.734,2.523,8.539,4.074c2.718,1.557,5.308,3.277,7.958,5.285l2.413,1.828l-1.75,2.471
			c-0.445,0.627-0.796,1.172-1.104,1.715c-2.404,4.237-3.011,9.156-1.708,13.85c1.295,4.668,4.327,8.545,8.537,10.919
			c4.143,2.37,9.132,2.991,13.75,1.753l2.924-0.784l0.876,2.897c1.813,6.001,2.799,12.199,2.933,18.424l0.065,3.049l-3.046,0.14
			c-6.207,0.286-11.769,3.703-14.88,9.142c-4.563,8.055-2.354,18.23,5.144,23.658l2.471,1.788l-1.728,2.513
			c-3.619,5.265-7.905,9.986-12.74,14.036l-2.354,1.972l-2.012-2.32c-1.405-1.619-3.015-2.951-4.787-3.959
			c-2.731-1.553-5.827-2.373-8.95-2.373c-6.546,0-12.616,3.531-15.839,9.217c-1.714,3.021-2.516,6.445-2.321,9.904l0.173,3.068
			l-3.065,0.224C164.32,421.395,162.668,421.455,161.034,421.455z M151.148,414.411c3.81,0.611,7.641,0.875,11.476,0.773
			c0.263-3.57,1.313-7.043,3.098-10.188c4.331-7.639,12.483-12.384,21.275-12.384c4.204,0,8.367,1.104,12.039,3.189
			c1.501,0.854,2.911,1.875,4.216,3.051c2.833-2.603,5.434-5.472,7.772-8.572c-8.108-7.607-10.121-19.903-4.501-29.823
			c3.659-6.397,9.837-10.711,16.917-11.952c-0.254-3.762-0.851-7.5-1.783-11.172c-5.301,0.729-10.775-0.317-15.413-2.971
			c-5.65-3.186-9.73-8.403-11.473-14.683c-1.711-6.168-0.968-12.627,2.09-18.235c-1.642-1.146-3.273-2.184-4.94-3.138
			c-1.692-0.936-3.428-1.808-5.174-2.597c-4.343,7.4-12.38,12.006-21.042,12.006c-4.202,0-8.364-1.102-12.037-3.187
			c-4.733-2.689-8.361-6.784-10.441-11.716c-3.668,1.09-7.187,2.492-10.511,4.189c2.558,6.748,2.016,14.271-1.6,20.654
			c-4.333,7.633-12.479,12.373-21.259,12.373c-2.267,0-4.492-0.311-6.648-0.925c-1.479,3.595-2.611,7.31-3.381,11.097
			c1.743,0.525,3.409,1.237,4.979,2.131c5.67,3.204,9.757,8.438,11.499,14.731c1.744,6.302,0.927,12.899-2.299,18.579
			c-1.813,3.182-4.288,5.887-7.254,7.955c1.858,3.281,4.011,6.385,6.435,9.271c4.01-2.681,8.746-4.132,13.618-4.132
			c4.197,0,8.355,1.102,12.025,3.185C146.922,396.515,151.622,405.283,151.148,414.411z M161.057,390.77
			c-6.545,0-13.033-1.716-18.76-4.962c-8.85-5.02-15.211-13.184-17.915-22.989c-2.703-9.805-1.425-20.077,3.6-28.925
			c6.745-11.895,19.442-19.284,33.136-19.284c6.551,0,13.04,1.72,18.764,4.976c18.243,10.365,24.668,33.646,14.324,51.897
			C187.45,383.38,174.749,390.77,161.057,390.77z M161.118,320.859c-11.448,0-22.062,6.177-27.701,16.12
			c-4.201,7.396-5.269,15.982-3.01,24.178s7.577,15.02,14.972,19.213c4.789,2.715,10.21,4.149,15.678,4.149
			c11.448,0,22.067-6.177,27.714-16.121c8.646-15.254,3.273-34.716-11.976-43.38C172.008,322.297,166.588,320.859,161.118,320.859z"
			/>
	</g>
	<g>
		<path fill="#E6E7E8" d="M1168.842,825.908l-0.143-5.851h1.643c27.443-0.558,49.742-23.295,49.742-50.687
			c0-19.573-10.984-37.061-28.668-45.639l-2.582-1.252l1.232-2.598c1.465-3.115,2.207-6.4,2.207-9.768
			c0-12.646-10.291-22.934-22.938-22.934c-4.045,0-8.049,1.092-11.578,3.156l-2.094,1.236l-1.588-1.85
			c-13.563-15.878-33.295-24.988-54.137-24.988c-33.277,0-61.785,22.615-69.334,54.992l-0.354,1.521l-1.467,0.543
			c-19.879,7.324-33.238,26.443-33.238,47.578c0,27.978,22.764,50.742,50.75,50.742h0.418v5.795h-0.418
			c-31.182,0-56.551-25.363-56.551-56.537c0-22.781,13.604-43.227,34.654-52.082l0.92-0.388l0.26-0.968
			c8.977-33.557,39.551-56.992,74.359-56.992c21.109,0,41.531,8.822,56.027,24.203l0.971,1.033l1.303-0.551
			c3.557-1.49,7.285-2.248,11.096-2.248c15.844,0,28.732,12.891,28.732,28.736c0,2.762-0.395,5.491-1.176,8.113l-0.455,1.539
			l1.389,0.809c17.566,10.215,28.057,28.457,28.057,48.795c0,28.548-22.279,53.229-50.721,56.199l-1.828,0.191v0.116l-2.914,0.03
			H1168.842z"/>
		<path fill="#E6E7E8" d="M1138.123,779.188h-60.617c-12.189,0-22.102,9.911-22.102,22.099v7.051v46.526v7.047
			c0,12.184,9.912,22.099,22.102,22.099h60.617c12.191,0,22.107-9.915,22.107-22.099v-7.047v-46.526v-7.051
			C1160.23,789.099,1150.314,779.188,1138.123,779.188z M1061.988,814.926h91.654v33.35h-91.654V814.926z M1153.643,861.91
			c0,8.553-6.959,15.515-15.52,15.515h-60.617c-8.561,0-15.518-6.962-15.518-15.515v-7.047h91.654V861.91z M1061.988,808.337v-7.051
			c0-8.552,6.957-15.511,15.518-15.511h60.617c8.561,0,15.52,6.959,15.52,15.511v7.051H1061.988z"/>
		<g>
			<path fill="#E6E7E8" d="M1074.264,785.138v-24.097c0-18.5,15.053-33.545,33.549-33.545c18.502,0,33.551,15.045,33.551,33.545
				v24.097h6.393v-24.097c0-22.021-17.92-39.941-39.943-39.941c-22.025,0-39.941,17.921-39.941,39.941v24.097H1074.264z"/>
		</g>
	</g>
	<g>
		<g>
			<path fill="#E6E7E8" d="M1120.568,338.163c-20.67,0-37.604-6.272-39.469-6.988l-7.809-3.063l7.229-4.28
				c12.609-7.464,22.91-26.361,29-53.21l0.338-1.498l-0.875-1.253c-13.428-19.219-20.521-41.478-20.521-64.365
				c0-66.136,59.016-119.937,131.551-119.937c72.525,0,131.523,53.801,131.523,119.937c0,66.144-58.998,119.954-131.523,119.954
				c-14.764,0-29.293-2.223-43.18-6.609l-2.039-0.646l-1.488,1.529C1160.318,331.099,1142.084,338.163,1120.568,338.163z
				 M1118.258,269.013c-3.357,16.122-10.014,38.348-22.641,52.664l-3.895,4.416l5.756,1.256c7.914,1.73,15.684,2.604,23.09,2.604
				c21.316,0,38.059-7.131,49.762-21.196l1.83-2.179l2.691,0.956c14.398,5.127,29.59,7.727,45.16,7.727
				c68.012,0,123.338-50.134,123.338-111.755c0-61.622-55.326-111.757-123.338-111.757c-68.014,0-123.346,50.135-123.346,111.757
				c0,22.278,7.219,43.793,20.867,62.23l1.104,1.479L1118.258,269.013z"/>
		</g>
		<g>
			<path fill="#E6E7E8" d="M1152.303,226.291c-8.508,0-15.428-6.919-15.428-15.429c0-8.512,6.92-15.44,15.428-15.44
				c8.514,0,15.441,6.929,15.441,15.44C1167.744,219.372,1160.816,226.291,1152.303,226.291z"/>
		</g>
		<g>
			<path fill="#E6E7E8" d="M1218.48,226.291c-8.512,0-15.441-6.919-15.441-15.429c0-8.512,6.93-15.44,15.441-15.44
				c8.508,0,15.428,6.929,15.428,15.44C1233.908,219.372,1226.988,226.291,1218.48,226.291z"/>
		</g>
		<g>
			<path fill="#E6E7E8" d="M1284.646,226.291c-8.518,0-15.447-6.919-15.447-15.429c0-8.512,6.93-15.44,15.447-15.44
				c8.512,0,15.441,6.929,15.441,15.44C1300.088,219.372,1293.158,226.291,1284.646,226.291z"/>
		</g>
	</g>
	<circle fill="#FFD97F" cx="701.853" cy="490" r="405.962"/>
	<g>
		<polygon fill="#CACBCD" points="759.797,735.042 647.835,735.042 662.655,645.604 744.979,645.604 		"/>
		<path fill="#E2E3E4" d="M831.363,744.696c0-10.105-8.189-18.293-18.289-18.293H586.427c-10.101,0-18.29,8.188-18.29,18.293v3.05
			h263.227V744.696z"/>
		<path fill="#FFFFFF" d="M568.137,747.746v11.177c0,10.104,8.189,18.293,18.29,18.293h226.647c10.1,0,18.289-8.188,18.289-18.293
			v-11.177H568.137z"/>
		<path fill="#FFFFFF" d="M1058.807,630.324c0,10.108-8.193,18.296-18.293,18.296H358.987c-10.101,0-18.293-8.188-18.293-18.296
			V182.076c0-10.104,8.192-18.294,18.293-18.294h681.526c10.1,0,18.293,8.189,18.293,18.294V630.324z"/>
		<path fill="#E2E3E4" d="M358.987,593.739c-1.68,0-3.046-1.368-3.046-3.05V182.076c0-1.685,1.366-3.05,3.046-3.05h681.526
			c1.68,0,3.045,1.365,3.045,3.05v408.613c0,1.682-1.365,3.05-3.045,3.05H358.987z"/>
		<rect x="369.657" y="192.745" fill="#4DD0E2" width="660.187" height="387.271"/>
		<g>
			<path fill="#183249" d="M858.441,580.017v-0.053c4.055-77.821-17.326-125.064-17.326-125.064
				c-12.607-16.043-43.178-21.779-43.178-21.779c-22.945-7.214-43.762-15.412-50.824-20.239c-6.533,7.54-14.385,17.3-29.467,22.784
				c0,0-0.334-10.188-7.211-22.029l-6.869-2.293l-6.879,2.293c-6.875,11.842-4.584,22.531-4.584,22.531
				c-15.086-5.488-25.556-15.746-32.09-23.286c-7.068,4.827-27.879,13.025-50.825,20.239c0,0-30.556,5.736-43.169,21.779
				c0,0-17.34,14.335-17.34,125.064v0.053H858.441z"/>
			<polygon fill="#F9C58C" points="739.705,401.746 739.705,381.067 703.566,365.147 667.429,381.067 667.429,401.746 
				703.566,412.881 			"/>
			<path fill="#FCD0A4" d="M761.334,303.349c0,0,9.707-57.862-10.422-72.239c0,0-14.559-15.815-47.346-12.94
				c-32.797-2.875-47.356,12.94-47.356,12.94c-20.13,14.377-10.423,72.239-10.423,72.239c-12.571-6.469-11.856,8.615-11.856,8.615
				c-1.078,30.199,17.608,35.225,17.608,35.225c7.907,47.063,52.027,54.558,52.027,54.558s44.105-7.495,52.016-54.558
				c0,0,18.688-5.025,17.609-35.225C773.191,311.964,773.908,296.88,761.334,303.349z"/>
			<path fill="#FFFFFF" d="M739.705,401.746l-36.139,11.135l-36.137-11.135l-7.416,11.135c0,0,1.209,1.604,3.289,4.005
				c5.279,6.094,16.33,17.496,28.529,21.938c0,0,0.611-11.43,6.175-21.002l5.56-1.855l5.553,1.855
				c5.557,9.572,6.176,21.002,6.176,21.002c12.191-4.441,23.242-15.844,28.525-21.938c2.072-2.4,3.293-4.005,3.293-4.005
				L739.705,401.746z"/>
			<path fill="#2D1407" d="M643.136,313.507c0,0-21.941-51.318,14.723-85.596c0,0-1.801-5.518-12.672-5.492
				c-10.879,0.025,18.913-0.852,18.913-0.852l-0.485-10.701l12.448,7.369c0,0,26.792-15.662,65.291,0.777l3.043-4.795
				c0,0,40.988,23.813,17.439,93.623c0,0-1.033-39.83-15.109-52.256c0,0-38.75,8.746-62.085-2.32c0,0-31.28-1.461-33.932,22.436
				C650.709,275.7,652.312,310.29,643.136,313.507z"/>
			<path fill="#FFFFFF" d="M714.115,503.599c0,38.28-4.609,69.313-10.295,69.313c-5.69,0-10.303-31.033-10.303-69.313
				c0-38.281,4.613-69.322,10.303-69.322C709.506,434.276,714.115,465.317,714.115,503.599z"/>
		</g>
	</g>
	<g>
		<path fill="#FF5E54" d="M1169.117,224.127H890.568c-24.813,0-44.926,20.116-44.926,44.928v142.267
			c0,24.811,20.113,44.928,44.926,44.928h0.256v49.919l66.561-49.919h211.732c24.813,0,44.926-20.117,44.926-44.928V269.055
			C1214.043,244.243,1193.93,224.127,1169.117,224.127z"/>
		<rect x="886.623" y="290.606" fill="#C24640" width="286.439" height="15.642"/>
		<rect x="886.623" y="335.331" fill="#C24640" width="286.439" height="15.643"/>
		<rect x="886.623" y="380.057" fill="#C24640" width="286.439" height="15.642"/>
	</g>
	<g>
		<path fill="#0088AE" d="M585.428,344.921l-28-45.582c8.752-18.095,13.662-38.393,13.662-59.841
			c0-75.994-61.605-137.6-137.599-137.6s-137.599,61.605-137.599,137.6s61.605,137.6,137.599,137.6
			c33.668,0,64.505-12.099,88.419-32.177H585.428z"/>
		<g>
			<g>
				<path fill="#FFFFFF" d="M482.25,240.872c-1.127-23.839-13.454-35.274-23.598-40.67c-11.182-5.962-22.643-6.265-24.827-6.265
					h-0.671c-2.185,0-13.647,0.303-24.829,6.265c-10.144,5.403-22.471,16.832-23.597,40.613c-0.03,1.017-0.459,25.057,21.143,41.748
					l4.231,19.712c0.182,0.864,0.952,1.491,1.833,1.491h0.657v3.795l-3.263,1.262c-0.717,0.278-1.2,0.982-1.2,1.752v1.934
					c0,0.494,0.2,0.979,0.548,1.328l3.517,3.531l-2.862,1.104c-0.72,0.273-1.204,0.979-1.204,1.756v1.932
					c0,0.5,0.193,0.973,0.549,1.333l3.915,3.917c0.112,6.451,4.545,11.975,10.864,13.477l0.079,0.018v2.81
					c0,5.653,4.596,10.253,10.247,10.253c5.655,0,10.254-4.6,10.254-10.253v-2.794c6.361-1.467,10.936-7.186,10.936-13.753v-2.968
					l3.913-3.913c0.352-0.345,0.554-0.833,0.554-1.333v-1.928c0-0.783-0.473-1.473-1.202-1.752l-2.868-1.121l3.517-3.523
					c0.351-0.348,0.553-0.833,0.553-1.331v-1.927c0-0.781-0.471-1.468-1.202-1.754l-3.266-1.258v-0.592h0.068
					c0.879,0,1.651-0.625,1.836-1.484l4.227-19.717C482.694,265.886,482.279,241.905,482.25,240.872z M451.77,312.438
					c-0.356,0.354-0.553,0.825-0.553,1.332v1.527c0,0.783,0.473,1.469,1.204,1.753l3.167,1.223l-3.821,3.821
					c-0.354,0.352-0.549,0.824-0.549,1.324v3.747c0,5.712-4.645,10.356-10.354,10.356h-14.152c-0.773,0-1.562-0.096-2.409-0.295
					c-4.682-1.117-7.952-5.255-7.952-10.062v-0.538c0-0.502-0.195-0.973-0.549-1.327l-3.818-3.821l3.166-1.222
					c0.73-0.279,1.202-0.966,1.202-1.751v-1.537c0-0.5-0.203-0.985-0.549-1.324l-3.819-3.82l3.17-1.219
					c0.727-0.287,1.198-0.975,1.198-1.754v-5.086h34.866v1.879c0,0.779,0.472,1.469,1.204,1.752l3.169,1.223L451.77,312.438z
					 M449.663,258.119c0.129-1.026-0.604-1.97-1.686-2.106l-0.202-0.012c-0.929,0-1.722,0.707-1.843,1.645l-5.425,42.361h-13.438
					l-5.431-42.36c-0.123-0.964-0.93-1.635-1.988-1.635l-0.114,0.007c-0.497,0.063-0.941,0.316-1.248,0.715
					c-0.306,0.397-0.44,0.89-0.376,1.388l5.368,41.886h-9.824l-4.059-18.903c-0.09-0.448-0.344-0.847-0.707-1.112
					c-20.669-15.572-20.235-38.1-20.207-39.037c1.039-21.98,12.323-32.49,21.606-37.436c10.395-5.541,21.044-5.822,23.072-5.822
					h0.624c2.034,0,12.706,0.281,23.098,5.822c9.284,4.934,20.568,15.446,21.611,37.496c0.028,0.948,0.436,23.422-20.214,38.977
					c-0.358,0.271-0.609,0.662-0.705,1.105l-4.056,18.91h-9.223L449.663,258.119z M433.784,350.208
					c-3.579,0-6.491-2.914-6.491-6.495v-2.435h12.99v2.435C440.283,347.294,437.367,350.208,433.784,350.208z"/>
				<path fill="#FFFFFF" d="M455.472,253.021c0.497,0,0.967-0.194,1.326-0.549c0.36-0.358,0.556-0.833,0.553-1.333
					c0-0.502-0.199-0.973-0.553-1.324l-9.841-9.843c-0.697-0.704-1.938-0.714-2.655,0l-5.741,5.743h-10.14l-5.742-5.743
					c-0.68-0.679-1.986-0.676-2.655,0l-9.843,9.843c-0.355,0.354-0.551,0.822-0.553,1.324c0,0.506,0.197,0.979,0.549,1.328
					c0.702,0.709,1.936,0.719,2.657,0.004l8.516-8.515l4.967,4.966c0.358,0.354,0.829,0.549,1.326,0.549h11.696
					c0.498,0,0.968-0.195,1.33-0.55l4.961-4.965l8.515,8.515C454.499,252.827,454.971,253.021,455.472,253.021z"/>
			</g>
			<g>
				<path fill="#FFFFFF" d="M433.49,177.491c-1.42,0-2.57-1.15-2.57-2.57v-34.693c0-1.419,1.15-2.568,2.57-2.568
					c1.419,0,2.57,1.149,2.57,2.568v34.693C436.06,176.341,434.91,177.491,433.49,177.491z"/>
			</g>
			<g>
				<path fill="#FFFFFF" d="M396.032,189.661c-0.794,0-1.578-0.367-2.081-1.059l-20.392-28.066c-0.834-1.149-0.58-2.757,0.568-3.592
					c1.147-0.83,2.755-0.578,3.589,0.568l20.392,28.068c0.833,1.148,0.58,2.756-0.569,3.59
					C397.085,189.502,396.557,189.661,396.032,189.661z"/>
			</g>
			<g>
				<path fill="#FFFFFF" d="M372.879,221.526c-0.263,0-0.53-0.041-0.794-0.127l-32.995-10.721c-1.351-0.438-2.089-1.889-1.65-3.238
					c0.439-1.35,1.886-2.086,3.238-1.65l32.996,10.721c1.35,0.439,2.089,1.889,1.649,3.239
					C374.971,220.836,373.962,221.526,372.879,221.526z"/>
			</g>
			<g>
				<path fill="#FFFFFF" d="M339.882,271.634c-1.084,0-2.09-0.69-2.443-1.777c-0.438-1.35,0.3-2.799,1.65-3.238l32.995-10.721
					c1.35-0.439,2.8,0.299,3.238,1.65c0.439,1.351-0.3,2.8-1.65,3.238l-32.996,10.721
					C340.414,271.593,340.146,271.634,339.882,271.634z"/>
			</g>
			<g>
				<path fill="#FFFFFF" d="M527.091,271.638c-0.264,0-0.53-0.041-0.794-0.126l-32.995-10.722c-1.35-0.438-2.088-1.889-1.65-3.238
					c0.439-1.35,1.887-2.086,3.238-1.65l32.994,10.721c1.35,0.439,2.088,1.889,1.65,3.239
					C529.182,270.948,528.174,271.638,527.091,271.638z"/>
			</g>
			<g>
				<path fill="#FFFFFF" d="M494.098,221.53c-1.083,0-2.091-0.691-2.443-1.777c-0.439-1.35,0.3-2.8,1.65-3.237l32.994-10.719
					c1.35-0.438,2.8,0.299,3.238,1.649s-0.3,2.799-1.65,3.238l-32.994,10.719C494.629,221.489,494.361,221.53,494.098,221.53z"/>
			</g>
			<g>
				<path fill="#FFFFFF" d="M470.947,189.663c-0.524,0-1.052-0.159-1.508-0.491c-1.148-0.833-1.403-2.44-0.568-3.589l20.392-28.065
					c0.835-1.147,2.442-1.4,3.59-0.568c1.147,0.835,1.402,2.442,0.568,3.589l-20.393,28.066
					C472.525,189.296,471.742,189.663,470.947,189.663z"/>
			</g>
		</g>
	</g>
	<g>
		<path opacity="0.75" fill="#F8F8D3" d="M421.746,518.034c-42.832,10.189-69.3,53.198-59.085,96.029
			c10.229,42.83,53.222,69.279,96.035,59.084c2.122-0.503,4.152-1.148,6.167-1.816l-41.681-153.566
			C422.698,517.884,422.211,517.901,421.746,518.034z"/>
		<path opacity="0.75" fill="#E9E9C7" d="M464.863,671.331c39.145-12.684,62.629-53.482,52.901-94.229
			c-10.069-42.353-52.254-68.614-94.583-59.337L464.863,671.331z"/>
		<path fill="none" d="M440.229,515.87c-44.019,0-79.709,35.691-79.709,79.727c0,44.025,35.69,79.727,79.709,79.727
			c44.036,0,79.729-35.701,79.729-79.727C519.958,551.562,484.265,515.87,440.229,515.87z"/>
		<path fill="#C24640" d="M266.695,780.909c13.656,8.136,26.09-2.579,26.09-2.579l90.875-90.868
			c0.214,0.136,0.449,0.252,0.684,0.387l-13.45-12.515L266.695,780.909z"/>
		<path fill="#FF5E54" d="M440.229,487.691c-59.588,0-107.885,48.325-107.885,107.905c0,22.639,6.994,43.641,18.932,60.992
			l-89.778,89.742c-13.324,16.893,0,30.577,0,30.577c1.745,1.69,3.479,2.976,5.198,4.001l104.2-105.575l13.45,12.515
			c16.317,9.889,35.412,15.616,55.884,15.616c59.589,0,107.885-48.315,107.885-107.868
			C548.114,536.017,499.818,487.691,440.229,487.691z M440.229,675.323c-44.019,0-79.709-35.701-79.709-79.727
			c0-44.035,35.69-79.727,79.709-79.727c44.036,0,79.729,35.691,79.729,79.727C519.958,639.622,484.265,675.323,440.229,675.323z"/>
	</g>
	<g>
		<path fill="#876CA6" d="M954.23,637.517c0-53.607,43.457-97.058,97.051-97.058c53.604,0,97.059,43.45,97.059,97.058
			c0,53.595-43.455,97.058-97.059,97.058C997.688,734.574,954.23,691.111,954.23,637.517z"/>
		<path fill="#DEDFE0" d="M1125.266,634.586c0,43.949-35.637,79.57-79.584,79.57c-12.127,0-23.602-2.72-33.881-7.56
			c11.645,6.672,25.109,10.505,39.496,10.505c43.947,0,79.584-35.635,79.584-79.585c0-31.838-18.699-59.286-45.717-72.024
			C1109.125,579.209,1125.266,605.01,1125.266,634.586z"/>
		<path fill="#FFFFFF" d="M971.705,637.517c0,29.569,16.154,55.355,40.096,69.08c10.279,4.84,21.754,7.56,33.881,7.56
			c43.947,0,79.584-35.621,79.584-79.57c0-29.576-16.141-55.377-40.102-69.094c-10.279-4.84-21.758-7.566-33.867-7.566
			C1007.332,557.926,971.705,593.561,971.705,637.517z"/>
		<path fill="#231F20" d="M1043.764,637.517c0-4.157,3.369-7.53,7.518-7.53c4.158,0,7.518,3.373,7.518,7.53
			c0,4.149-3.359,7.524-7.518,7.524C1047.133,645.041,1043.764,641.666,1043.764,637.517z"/>
		<path fill="#231F20" d="M1048.365,701.51c0-0.803,0.67-1.451,1.465-1.451h2.912c0.787,0,1.436,0.648,1.436,1.451v11.639
			c0,0.811-0.648,1.459-1.436,1.459h-2.912c-0.795,0-1.465-0.648-1.465-1.459V701.51z"/>
		<path fill="#231F20" d="M1048.365,562.236c0-0.803,0.67-1.451,1.465-1.451h2.912c0.787,0,1.436,0.648,1.436,1.451v11.653
			c0,0.789-0.648,1.45-1.436,1.45h-2.912c-0.795,0-1.465-0.661-1.465-1.45V562.236z"/>
		<path fill="#231F20" d="M987.479,634.783c0.789,0,1.443,0.654,1.443,1.451v2.916c0,0.797-0.654,1.467-1.443,1.467h-11.652
			c-0.805,0-1.459-0.67-1.459-1.467v-2.916c0-0.797,0.654-1.451,1.459-1.451H987.479z"/>
		<path fill="#231F20" d="M1071.572,693.281c0.246,0.768-0.168,1.592-0.93,1.846l-2.768,0.902c-0.768,0.254-1.586-0.17-1.832-0.931
			l-16.705-55.2c-0.24-0.754,0.176-1.586,0.936-1.832l2.756-0.916c0.768-0.232,1.6,0.176,1.854,0.938L1071.572,693.281z"/>
		<path fill="#231F20" d="M1022.348,624.674c-0.951-0.543-1.283-1.763-0.77-2.707l1.959-3.459c0.529-0.957,1.756-1.289,2.707-0.753
			l25.496,15.373c0.951,0.542,1.289,1.761,0.754,2.705l-1.945,3.46c-0.541,0.958-1.746,1.289-2.697,0.753L1022.348,624.674z"/>
		<path fill="#231F20" d="M1126.738,634.783c0.803,0,1.457,0.654,1.457,1.451v2.916c0,0.797-0.654,1.467-1.457,1.467h-11.646
			c-0.803,0-1.457-0.67-1.457-1.467v-2.916c0-0.797,0.654-1.451,1.457-1.451H1126.738z"/>
	</g>
	<g>
		<g>
			<path fill="#FFFFFF" d="M919.947,855.257V546.554c0-19.749-23.922-21.649-23.922-21.649h-63.828h-63.838
				c0,0-23.912,1.9-23.912,21.649v308.703c0,0-0.51,19.738,22.275,19.738h65.475h65.471
				C920.451,874.995,919.947,855.257,919.947,855.257z"/>
			<polygon fill="#7DC5DE" points="910.039,569.716 754.355,569.716 754.355,762.986 910.039,604.374 			"/>
			<polygon fill="#85D4F0" points="754.355,762.986 754.355,832.467 910.039,832.467 910.039,604.374 			"/>
			<path fill="#E6E7E8" d="M843.176,855.067c0,6.055-4.914,10.973-10.979,10.973c-6.063,0-10.982-4.918-10.982-10.973
				c0-6.068,4.92-10.982,10.982-10.982C838.262,844.085,843.176,848.999,843.176,855.067z"/>
			<g>
				<rect x="805.232" y="548.653" fill="#0088AE" width="53.922" height="2.635"/>
			</g>
		</g>
		<g>
			<path fill="#FF5E54" d="M816.35,605.124h67.77c8.758,0,15.854,7.102,15.854,15.857v65.172v2.598v26.316l-25.934-10.467H816.35
				c-8.756,0-15.854-7.098-15.854-15.85v-67.77C800.496,612.226,807.594,605.124,816.35,605.124z"/>
			<path fill="#0088AE" d="M848.049,686.157h-67.768c-8.758,0-15.859,7.098-15.859,15.854v65.176v2.593v26.321l25.936-10.466h57.691
				c8.754,0,15.854-7.098,15.854-15.855v-67.769C863.902,693.255,856.803,686.157,848.049,686.157z"/>
			<path fill="#FFFFFF" d="M829.824,736.437c0,5.826,4.727,10.549,10.551,10.549c5.828,0,10.551-4.723,10.551-10.549
				c0-5.828-4.723-10.55-10.551-10.55C834.551,725.887,829.824,730.608,829.824,736.437z"/>
			<circle fill="#FFFFFF" cx="814.163" cy="736.437" r="10.552"/>
			<path fill="#FFFFFF" d="M777.4,736.437c0,5.826,4.725,10.549,10.549,10.549c5.828,0,10.553-4.723,10.553-10.549
				c0-5.828-4.725-10.55-10.553-10.55C782.125,725.887,777.4,730.608,777.4,736.437z"/>
			<g>
				<rect x="820.328" y="629.43" fill="#C24640" width="59.813" height="4.188"/>
			</g>
			<g>
				<rect x="820.328" y="644.99" fill="#C24640" width="59.813" height="4.188"/>
			</g>
			<g>
				<rect x="820.328" y="660.547" fill="#C24640" width="59.813" height="4.187"/>
			</g>
			<g>
				<rect x="820.328" y="676.11" fill="#C24640" width="59.813" height="4.188"/>
			</g>
		</g>
	</g>
	<g>
		<g>
			<path fill="#E6E7E8" d="M1258.029,552.377c-0.643,0.642-1.529,1.038-2.51,1.038c-36.619,0.001-66.41-29.792-66.41-66.41
				c0-1.962,1.588-3.55,3.549-3.55c1.959,0,3.549,1.589,3.549,3.549c0,32.705,26.609,59.314,59.314,59.314
				c1.959-0.002,3.549,1.588,3.547,3.547C1259.068,550.846,1258.672,551.734,1258.029,552.377z"/>
		</g>
		<g>
			<path fill="#E6E7E8" d="M1258.029,598.259c-0.643,0.643-1.529,1.04-2.51,1.04c-29.994,0-58.193-11.682-79.404-32.891
				c-21.209-21.209-32.889-49.408-32.889-79.404c0-1.961,1.59-3.549,3.549-3.549c1.961,0,3.549,1.589,3.549,3.549
				c0,28.1,10.941,54.517,30.811,74.385c19.869,19.869,46.285,30.812,74.385,30.813c1.961-0.001,3.549,1.588,3.549,3.548
				C1259.068,596.729,1258.672,597.617,1258.029,598.259z"/>
		</g>
		<g>
			<path fill="#E6E7E8" d="M1276.275,507.76c-11.443,11.445-30.066,11.445-41.512,0c-11.443-11.445-11.445-30.066,0-41.512
				s30.066-11.445,41.512,0S1287.721,496.315,1276.275,507.76z M1239.783,471.268c-8.678,8.678-8.678,22.797,0,31.473
				c8.678,8.678,22.795,8.678,31.473,0c8.678-8.677,8.678-22.795,0-31.473C1262.58,462.59,1248.461,462.59,1239.783,471.268z"/>
		</g>
	</g>
</g>
</svg>
